{
    "asset" : {
        "generator" : "Khronos glTF Blender I/O v1.6.16",
        "version" : "2.0"
    },
    "scene" : 0,
    "scenes" : [
        {
            "name" : "Scene",
            "nodes" : [
                0,
                1,
                2,
                3,
                4,
                5,
                6,
                7
            ]
        }
    ],
    "nodes" : [
        {
            "mesh" : 0,
            "name" : "Plane",
            "scale" : [
                0.11036264896392822,
                0.699999988079071,
                0.11036264896392822
            ],
            "translation" : [
                -1.951062560081482,
                0,
                -0.3818065822124481
            ]
        },
        {
            "mesh" : 1,
            "name" : "Plane.001",
            "scale" : [
                0.03845461085438728,
                0.08912743628025055,
                0.03845461085438728
            ],
            "translation" : [
                -0.7460700273513794,
                0,
                -0.3759138286113739
            ]
        },
        {
            "mesh" : 2,
            "name" : "Plane.002",
            "scale" : [
                0.05475100129842758,
                0.029999999329447746,
                0.05475100129842758
            ],
            "translation" : [
                -0.173833966255188,
                0,
                0.3773469626903534
            ]
        },
        {
            "mesh" : 3,
            "name" : "Plane.003",
            "scale" : [
                0.04866974055767059,
                0.04866974055767059,
                0.04866974055767059
            ],
            "translation" : [
                0.25262898206710815,
                0,
                -0.29233214259147644
            ]
        },
        {
            "mesh" : 4,
            "name" : "Plane.004",
            "scale" : [
                0.13758248090744019,
                0.13758248090744019,
                0.13758248090744019
            ],
            "translation" : [
                0.3733896017074585,
                0,
                -0.01712796464562416
            ]
        },
        {
            "mesh" : 5,
            "name" : "Plane.005",
            "scale" : [
                0.04658244550228119,
                -0.04999999701976776,
                0.04658244550228119
            ],
            "translation" : [
                0.7878870964050293,
                0,
                -0.03140129894018173
            ]
        },
        {
            "mesh" : 6,
            "name" : "Plane.006",
            "scale" : [
                -0.014097174629569054,
                -0.014097174629569054,
                -0.014097174629569054
            ],
            "translation" : [
                1.505887508392334,
                0,
                -0.5563542246818542
            ]
        },
        {
            "mesh" : 7,
            "name" : "Plane.007",
            "scale" : [
                0.03814426064491272,
                0.03814426064491272,
                0.03814426064491272
            ],
            "translation" : [
                1.9860295057296753,
                -0.0008909106254577637,
                -0.5562310218811035
            ]
        }
    ],
    "materials" : [
        {
            "doubleSided" : true,
            "emissiveFactor" : [
                0.8796226978302002,
                0.24228110909461975,
                0.45641109347343445
            ],
            "name" : "Material",
            "pbrMetallicRoughness" : {
                "baseColorFactor" : [
                    0.800000011920929,
                    0.800000011920929,
                    0.800000011920929,
                    1
                ],
                "metallicFactor" : 0,
                "roughnessFactor" : 0.4000000059604645
            }
        }
    ],
    "meshes" : [
        {
            "name" : "Plane",
            "primitives" : [
                {
                    "attributes" : {
                        "POSITION" : 0,
                        "NORMAL" : 1,
                        "TEXCOORD_0" : 2
                    },
                    "indices" : 3,
                    "material" : 0
                }
            ]
        },
        {
            "name" : "Plane.001",
            "primitives" : [
                {
                    "attributes" : {
                        "POSITION" : 4,
                        "NORMAL" : 5,
                        "TEXCOORD_0" : 6
                    },
                    "indices" : 7,
                    "material" : 0
                }
            ]
        },
        {
            "name" : "Plane.002",
            "primitives" : [
                {
                    "attributes" : {
                        "POSITION" : 8,
                        "NORMAL" : 9,
                        "TEXCOORD_0" : 10
                    },
                    "indices" : 11,
                    "material" : 0
                }
            ]
        },
        {
            "name" : "Plane.003",
            "primitives" : [
                {
                    "attributes" : {
                        "POSITION" : 12,
                        "NORMAL" : 13,
                        "TEXCOORD_0" : 14
                    },
                    "indices" : 15,
                    "material" : 0
                }
            ]
        },
        {
            "name" : "Plane.004",
            "primitives" : [
                {
                    "attributes" : {
                        "POSITION" : 16,
                        "NORMAL" : 17,
                        "TEXCOORD_0" : 18
                    },
                    "indices" : 19,
                    "material" : 0
                }
            ]
        },
        {
            "name" : "Plane.005",
            "primitives" : [
                {
                    "attributes" : {
                        "POSITION" : 20,
                        "NORMAL" : 21,
                        "TEXCOORD_0" : 22
                    },
                    "indices" : 23,
                    "material" : 0
                }
            ]
        },
        {
            "name" : "Plane.006",
            "primitives" : [
                {
                    "attributes" : {
                        "POSITION" : 24,
                        "NORMAL" : 25,
                        "TEXCOORD_0" : 26
                    },
                    "indices" : 27,
                    "material" : 0
                }
            ]
        },
        {
            "name" : "Plane.007",
            "primitives" : [
                {
                    "attributes" : {
                        "POSITION" : 28,
                        "NORMAL" : 29,
                        "TEXCOORD_0" : 30
                    },
                    "indices" : 31,
                    "material" : 0
                }
            ]
        }
    ],
    "accessors" : [
        {
            "bufferView" : 0,
            "componentType" : 5126,
            "count" : 851,
            "max" : [
                6.293465614318848,
                0.4023299515247345,
                11.52099323272705
            ],
            "min" : [
                -1.790832757949829,
                0,
                -1.0885897874832153
            ],
            "type" : "VEC3"
        },
        {
            "bufferView" : 1,
            "componentType" : 5126,
            "count" : 851,
            "type" : "VEC3"
        },
        {
            "bufferView" : 2,
            "componentType" : 5126,
            "count" : 851,
            "type" : "VEC2"
        },
        {
            "bufferView" : 3,
            "componentType" : 5123,
            "count" : 1602,
            "type" : "SCALAR"
        },
        {
            "bufferView" : 4,
            "componentType" : 5126,
            "count" : 1050,
            "max" : [
                13.920454978942871,
                3.159877300262451,
                31.718204498291016
            ],
            "min" : [
                -5.464888572692871,
                0,
                -5.907849311828613
            ],
            "type" : "VEC3"
        },
        {
            "bufferView" : 5,
            "componentType" : 5126,
            "count" : 1050,
            "type" : "VEC3"
        },
        {
            "bufferView" : 6,
            "componentType" : 5126,
            "count" : 1050,
            "type" : "VEC2"
        },
        {
            "bufferView" : 7,
            "componentType" : 5123,
            "count" : 2022,
            "type" : "SCALAR"
        },
        {
            "bufferView" : 8,
            "componentType" : 5126,
            "count" : 384,
            "max" : [
                2.3564183712005615,
                5.143862724304199,
                3.946908950805664
            ],
            "min" : [
                -3.981226921081543,
                0,
                -6.3294758796691895
            ],
            "type" : "VEC3"
        },
        {
            "bufferView" : 9,
            "componentType" : 5126,
            "count" : 384,
            "type" : "VEC3"
        },
        {
            "bufferView" : 10,
            "componentType" : 5126,
            "count" : 384,
            "type" : "VEC2"
        },
        {
            "bufferView" : 11,
            "componentType" : 5123,
            "count" : 732,
            "type" : "SCALAR"
        },
        {
            "bufferView" : 12,
            "componentType" : 5126,
            "count" : 610,
            "max" : [
                15.45016098022461,
                5.78657865524292,
                23.19794464111328
            ],
            "min" : [
                -1.8729872703552246,
                0,
                -6.375365257263184
            ],
            "type" : "VEC3"
        },
        {
            "bufferView" : 13,
            "componentType" : 5126,
            "count" : 610,
            "type" : "VEC3"
        },
        {
            "bufferView" : 14,
            "componentType" : 5126,
            "count" : 610,
            "type" : "VEC2"
        },
        {
            "bufferView" : 15,
            "componentType" : 5123,
            "count" : 1074,
            "type" : "SCALAR"
        },
        {
            "bufferView" : 16,
            "componentType" : 5126,
            "count" : 140,
            "max" : [
                0.09087070822715759,
                1.1216336488723755,
                3.0514142513275146
            ],
            "min" : [
                -1.356366515159607,
                0,
                -1.3485435247421265
            ],
            "type" : "VEC3"
        },
        {
            "bufferView" : 17,
            "componentType" : 5126,
            "count" : 140,
            "type" : "VEC3"
        },
        {
            "bufferView" : 18,
            "componentType" : 5126,
            "count" : 140,
            "type" : "VEC2"
        },
        {
            "bufferView" : 19,
            "componentType" : 5123,
            "count" : 246,
            "type" : "SCALAR"
        },
        {
            "bufferView" : 20,
            "componentType" : 5126,
            "count" : 365,
            "max" : [
                3.683352470397949,
                3.0863099098205566,
                6.8045830726623535
            ],
            "min" : [
                -4.133003234863281,
                0,
                -4.203957557678223
            ],
            "type" : "VEC3"
        },
        {
            "bufferView" : 21,
            "componentType" : 5126,
            "count" : 365,
            "type" : "VEC3"
        },
        {
            "bufferView" : 22,
            "componentType" : 5126,
            "count" : 365,
            "type" : "VEC2"
        },
        {
            "bufferView" : 23,
            "componentType" : 5123,
            "count" : 627,
            "type" : "SCALAR"
        },
        {
            "bufferView" : 24,
            "componentType" : 5126,
            "count" : 710,
            "max" : [
                8.782146453857422,
                0,
                1.3824658393859863
            ],
            "min" : [
                -17.228031158447266,
                -19.97780990600586,
                -104.94926452636719
            ],
            "type" : "VEC3"
        },
        {
            "bufferView" : 25,
            "componentType" : 5126,
            "count" : 710,
            "type" : "VEC3"
        },
        {
            "bufferView" : 26,
            "componentType" : 5126,
            "count" : 710,
            "type" : "VEC2"
        },
        {
            "bufferView" : 27,
            "componentType" : 5123,
            "count" : 1236,
            "type" : "SCALAR"
        },
        {
            "bufferView" : 28,
            "componentType" : 5126,
            "count" : 669,
            "max" : [
                5.779365062713623,
                7.406685829162598,
                38.777809143066406
            ],
            "min" : [
                -5.897472858428955,
                0,
                -1.4341771602630615
            ],
            "type" : "VEC3"
        },
        {
            "bufferView" : 29,
            "componentType" : 5126,
            "count" : 669,
            "type" : "VEC3"
        },
        {
            "bufferView" : 30,
            "componentType" : 5126,
            "count" : 669,
            "type" : "VEC2"
        },
        {
            "bufferView" : 31,
            "componentType" : 5123,
            "count" : 1161,
            "type" : "SCALAR"
        }
    ],
    "bufferViews" : [
        {
            "buffer" : 0,
            "byteLength" : 10212,
            "byteOffset" : 0
        },
        {
            "buffer" : 0,
            "byteLength" : 10212,
            "byteOffset" : 10212
        },
        {
            "buffer" : 0,
            "byteLength" : 6808,
            "byteOffset" : 20424
        },
        {
            "buffer" : 0,
            "byteLength" : 3204,
            "byteOffset" : 27232
        },
        {
            "buffer" : 0,
            "byteLength" : 12600,
            "byteOffset" : 30436
        },
        {
            "buffer" : 0,
            "byteLength" : 12600,
            "byteOffset" : 43036
        },
        {
            "buffer" : 0,
            "byteLength" : 8400,
            "byteOffset" : 55636
        },
        {
            "buffer" : 0,
            "byteLength" : 4044,
            "byteOffset" : 64036
        },
        {
            "buffer" : 0,
            "byteLength" : 4608,
            "byteOffset" : 68080
        },
        {
            "buffer" : 0,
            "byteLength" : 4608,
            "byteOffset" : 72688
        },
        {
            "buffer" : 0,
            "byteLength" : 3072,
            "byteOffset" : 77296
        },
        {
            "buffer" : 0,
            "byteLength" : 1464,
            "byteOffset" : 80368
        },
        {
            "buffer" : 0,
            "byteLength" : 7320,
            "byteOffset" : 81832
        },
        {
            "buffer" : 0,
            "byteLength" : 7320,
            "byteOffset" : 89152
        },
        {
            "buffer" : 0,
            "byteLength" : 4880,
            "byteOffset" : 96472
        },
        {
            "buffer" : 0,
            "byteLength" : 2148,
            "byteOffset" : 101352
        },
        {
            "buffer" : 0,
            "byteLength" : 1680,
            "byteOffset" : 103500
        },
        {
            "buffer" : 0,
            "byteLength" : 1680,
            "byteOffset" : 105180
        },
        {
            "buffer" : 0,
            "byteLength" : 1120,
            "byteOffset" : 106860
        },
        {
            "buffer" : 0,
            "byteLength" : 492,
            "byteOffset" : 107980
        },
        {
            "buffer" : 0,
            "byteLength" : 4380,
            "byteOffset" : 108472
        },
        {
            "buffer" : 0,
            "byteLength" : 4380,
            "byteOffset" : 112852
        },
        {
            "buffer" : 0,
            "byteLength" : 2920,
            "byteOffset" : 117232
        },
        {
            "buffer" : 0,
            "byteLength" : 1254,
            "byteOffset" : 120152
        },
        {
            "buffer" : 0,
            "byteLength" : 8520,
            "byteOffset" : 121408
        },
        {
            "buffer" : 0,
            "byteLength" : 8520,
            "byteOffset" : 129928
        },
        {
            "buffer" : 0,
            "byteLength" : 5680,
            "byteOffset" : 138448
        },
        {
            "buffer" : 0,
            "byteLength" : 2472,
            "byteOffset" : 144128
        },
        {
            "buffer" : 0,
            "byteLength" : 8028,
            "byteOffset" : 146600
        },
        {
            "buffer" : 0,
            "byteLength" : 8028,
            "byteOffset" : 154628
        },
        {
            "buffer" : 0,
            "byteLength" : 5352,
            "byteOffset" : 162656
        },
        {
            "buffer" : 0,
            "byteLength" : 2322,
            "byteOffset" : 168008
        }
    ],
    "buffers" : [
        {
            "byteLength" : 170332,
            "uri" : "data:application/octet-stream;base64,"
        }
    ]
}
