{
    "asset" : {
        "generator" : "Khronos glTF Blender I/O v1.6.16",
        "version" : "2.0"
    },
    "scene" : 0,
    "scenes" : [
        {
            "name" : "Scene",
            "nodes" : [
                0,
                1,
                2,
                3
            ]
        }
    ],
    "nodes" : [
        {
            "mesh" : 0,
            "name" : "Cylinder",
            "scale" : [
                1.163540005683899,
                0.12999999523162842,
                1.1635395288467407
            ],
            "translation" : [
                0.018990106880664825,
                0,
                0.6038854122161865
            ]
        },
        {
            "mesh" : 1,
            "name" : "Cylinder.001",
            "rotation" : [
                0,
                -0.7134581208229065,
                0,
                -0.7006978988647461
            ],
            "scale" : [
                1.1635395288467407,
                0.14000000059604645,
                1.1635395288467407
            ],
            "translation" : [
                0.7178265452384949,
                0,
                -0.5735019445419312
            ]
        },
        {
            "mesh" : 2,
            "name" : "Cylinder.002",
            "rotation" : [
                0,
                -0.699262797832489,
                0,
                0.7148647904396057
            ],
            "scale" : [
                1.1635395288467407,
                0.15000000596046448,
                1.1635395288467407
            ],
            "translation" : [
                -0.7193459272384644,
                0,
                -0.5674253702163696
            ]
        },
        {
            "mesh" : 3,
            "name" : "Cube",
            "scale" : [
                0.1280984878540039,
                0.30000001192092896,
                0.1280984878540039
            ],
            "translation" : [
                -1.1076030731201172,
                0,
                -0.7668625116348267
            ]
        }
    ],
    "materials" : [
        {
            "doubleSided" : true,
            "emissiveFactor" : [
                0.938685953617096,
                0.5394796133041382,
                0.14995987713336945
            ],
            "name" : "Material",
            "pbrMetallicRoughness" : {
                "baseColorFactor" : [
                    0.800000011920929,
                    0.800000011920929,
                    0.800000011920929,
                    1
                ],
                "metallicFactor" : 0,
                "roughnessFactor" : 0.4000000059604645
            }
        }
    ],
    "meshes" : [
        {
            "name" : "Cylinder",
            "primitives" : [
                {
                    "attributes" : {
                        "POSITION" : 0,
                        "NORMAL" : 1,
                        "TEXCOORD_0" : 2
                    },
                    "indices" : 3,
                    "material" : 0
                }
            ]
        },
        {
            "name" : "Cylinder.002",
            "primitives" : [
                {
                    "attributes" : {
                        "POSITION" : 4,
                        "NORMAL" : 5,
                        "TEXCOORD_0" : 6
                    },
                    "indices" : 7,
                    "material" : 0
                }
            ]
        },
        {
            "name" : "Cylinder.003",
            "primitives" : [
                {
                    "attributes" : {
                        "POSITION" : 8,
                        "NORMAL" : 9,
                        "TEXCOORD_0" : 10
                    },
                    "indices" : 11,
                    "material" : 0
                }
            ]
        },
        {
            "name" : "Cube.001",
            "primitives" : [
                {
                    "attributes" : {
                        "POSITION" : 12,
                        "NORMAL" : 13,
                        "TEXCOORD_0" : 14
                    },
                    "indices" : 15,
                    "material" : 0
                }
            ]
        }
    ],
    "accessors" : [
        {
            "bufferView" : 0,
            "componentType" : 5126,
            "count" : 368,
            "max" : [
                0.9957824349403381,
                0.9999999403953552,
                0.9785078167915344
            ],
            "min" : [
                -0.9999999403953552,
                -0.9999999403953552,
                -0.9999999403953552
            ],
            "type" : "VEC3"
        },
        {
            "bufferView" : 1,
            "componentType" : 5126,
            "count" : 368,
            "type" : "VEC3"
        },
        {
            "bufferView" : 2,
            "componentType" : 5126,
            "count" : 368,
            "type" : "VEC2"
        },
        {
            "bufferView" : 3,
            "componentType" : 5123,
            "count" : 696,
            "type" : "SCALAR"
        },
        {
            "bufferView" : 4,
            "componentType" : 5126,
            "count" : 388,
            "max" : [
                0.9977291226387024,
                0.9999999403953552,
                0.9785078167915344
            ],
            "min" : [
                -0.9999999403953552,
                -0.9999999403953552,
                -0.9999999403953552
            ],
            "type" : "VEC3"
        },
        {
            "bufferView" : 5,
            "componentType" : 5126,
            "count" : 388,
            "type" : "VEC3"
        },
        {
            "bufferView" : 6,
            "componentType" : 5126,
            "count" : 388,
            "type" : "VEC2"
        },
        {
            "bufferView" : 7,
            "componentType" : 5123,
            "count" : 720,
            "type" : "SCALAR"
        },
        {
            "bufferView" : 8,
            "componentType" : 5126,
            "count" : 396,
            "max" : [
                0.9943228960037231,
                0.9999999403953552,
                0.9785078167915344
            ],
            "min" : [
                -0.9999999403953552,
                -0.9999999403953552,
                -0.9999999403953552
            ],
            "type" : "VEC3"
        },
        {
            "bufferView" : 9,
            "componentType" : 5126,
            "count" : 396,
            "type" : "VEC3"
        },
        {
            "bufferView" : 10,
            "componentType" : 5126,
            "count" : 396,
            "type" : "VEC2"
        },
        {
            "bufferView" : 11,
            "componentType" : 5123,
            "count" : 720,
            "type" : "SCALAR"
        },
        {
            "bufferView" : 12,
            "componentType" : 5126,
            "count" : 61,
            "max" : [
                18.691408157348633,
                1,
                14.58530044555664
            ],
            "min" : [
                -1,
                -1,
                -1.018681287765503
            ],
            "type" : "VEC3"
        },
        {
            "bufferView" : 13,
            "componentType" : 5126,
            "count" : 61,
            "type" : "VEC3"
        },
        {
            "bufferView" : 14,
            "componentType" : 5126,
            "count" : 61,
            "type" : "VEC2"
        },
        {
            "bufferView" : 15,
            "componentType" : 5123,
            "count" : 99,
            "type" : "SCALAR"
        }
    ],
    "bufferViews" : [
        {
            "buffer" : 0,
            "byteLength" : 4416,
            "byteOffset" : 0
        },
        {
            "buffer" : 0,
            "byteLength" : 4416,
            "byteOffset" : 4416
        },
        {
            "buffer" : 0,
            "byteLength" : 2944,
            "byteOffset" : 8832
        },
        {
            "buffer" : 0,
            "byteLength" : 1392,
            "byteOffset" : 11776
        },
        {
            "buffer" : 0,
            "byteLength" : 4656,
            "byteOffset" : 13168
        },
        {
            "buffer" : 0,
            "byteLength" : 4656,
            "byteOffset" : 17824
        },
        {
            "buffer" : 0,
            "byteLength" : 3104,
            "byteOffset" : 22480
        },
        {
            "buffer" : 0,
            "byteLength" : 1440,
            "byteOffset" : 25584
        },
        {
            "buffer" : 0,
            "byteLength" : 4752,
            "byteOffset" : 27024
        },
        {
            "buffer" : 0,
            "byteLength" : 4752,
            "byteOffset" : 31776
        },
        {
            "buffer" : 0,
            "byteLength" : 3168,
            "byteOffset" : 36528
        },
        {
            "buffer" : 0,
            "byteLength" : 1440,
            "byteOffset" : 39696
        },
        {
            "buffer" : 0,
            "byteLength" : 732,
            "byteOffset" : 41136
        },
        {
            "buffer" : 0,
            "byteLength" : 732,
            "byteOffset" : 41868
        },
        {
            "buffer" : 0,
            "byteLength" : 488,
            "byteOffset" : 42600
        },
        {
            "buffer" : 0,
            "byteLength" : 198,
            "byteOffset" : 43088
        }
    ],
    "buffers" : [
        {
            "byteLength" : 43288,
            "uri" : "data:application/octet-stream;base64,"
        }
    ]
}
