{
    "asset" : {
        "generator" : "Khronos glTF Blender I/O v1.6.16",
        "version" : "2.0"
    },
    "scene" : 0,
    "scenes" : [
        {
            "name" : "Scene",
            "nodes" : [
                0,
                1,
                2
            ]
        }
    ],
    "nodes" : [
        {
            "mesh" : 0,
            "name" : "Plane",
            "scale" : [
                -0.15771090984344482,
                -0.15771090984344482,
                -0.15771090984344482
            ],
            "translation" : [
                -0.8988654613494873,
                0,
                -1.161562204360962
            ]
        },
        {
            "mesh" : 1,
            "name" : "Plane.001",
            "scale" : [
                0.05321935936808586,
                0.05321935936808586,
                0.05321935936808586
            ],
            "translation" : [
                0.18948231637477875,
                0,
                -0.8809182047843933
            ]
        },
        {
            "mesh" : 2,
            "name" : "Plane.002",
            "scale" : [
                0.2997077703475952,
                0.2997077703475952,
                0.2997077703475952
            ],
            "translation" : [
                -1.0865223407745361,
                -0.0012516974238678813,
                1.0236399173736572
            ]
        }
    ],
    "materials" : [
        {
            "doubleSided" : true,
            "emissiveFactor" : [
                0.1912018358707428,
                0.46778377890586853,
                0.24228116869926453
            ],
            "name" : "Material",
            "pbrMetallicRoughness" : {
                "baseColorFactor" : [
                    0.800000011920929,
                    0.800000011920929,
                    0.800000011920929,
                    1
                ],
                "metallicFactor" : 0,
                "roughnessFactor" : 0.4000000059604645
            }
        }
    ],
    "meshes" : [
        {
            "name" : "Plane",
            "primitives" : [
                {
                    "attributes" : {
                        "POSITION" : 0,
                        "NORMAL" : 1,
                        "TEXCOORD_0" : 2
                    },
                    "indices" : 3,
                    "material" : 0
                }
            ]
        },
        {
            "name" : "Plane.001",
            "primitives" : [
                {
                    "attributes" : {
                        "POSITION" : 4,
                        "NORMAL" : 5,
                        "TEXCOORD_0" : 6
                    },
                    "indices" : 7,
                    "material" : 0
                }
            ]
        },
        {
            "name" : "Plane.002",
            "primitives" : [
                {
                    "attributes" : {
                        "POSITION" : 8,
                        "NORMAL" : 9,
                        "TEXCOORD_0" : 10
                    },
                    "indices" : 11,
                    "material" : 0
                }
            ]
        }
    ],
    "accessors" : [
        {
            "bufferView" : 0,
            "componentType" : 5126,
            "count" : 1251,
            "max" : [
                4.927962303161621,
                1.9048558473587036,
                1.6146148443222046
            ],
            "min" : [
                -4.76336669921875,
                -1.9048558473587036,
                -6.017701625823975
            ],
            "type" : "VEC3"
        },
        {
            "bufferView" : 1,
            "componentType" : 5126,
            "count" : 1251,
            "type" : "VEC3"
        },
        {
            "bufferView" : 2,
            "componentType" : 5126,
            "count" : 1251,
            "type" : "VEC2"
        },
        {
            "bufferView" : 3,
            "componentType" : 5123,
            "count" : 2901,
            "type" : "SCALAR"
        },
        {
            "bufferView" : 4,
            "componentType" : 5126,
            "count" : 1602,
            "max" : [
                28.377355575561523,
                5.644873142242432,
                17.518949508666992
            ],
            "min" : [
                -2.1184794902801514,
                -0.023519588634371758,
                -13.55129337310791
            ],
            "type" : "VEC3"
        },
        {
            "bufferView" : 5,
            "componentType" : 5126,
            "count" : 1602,
            "type" : "VEC3"
        },
        {
            "bufferView" : 6,
            "componentType" : 5126,
            "count" : 1602,
            "type" : "VEC2"
        },
        {
            "bufferView" : 7,
            "componentType" : 5123,
            "count" : 2814,
            "type" : "SCALAR"
        },
        {
            "bufferView" : 8,
            "componentType" : 5126,
            "count" : 4185,
            "max" : [
                3.4034321308135986,
                1.0037569999694824,
                1.7016699314117432
            ],
            "min" : [
                -1.996598243713379,
                -1.0037569999694824,
                -3.35361909866333
            ],
            "type" : "VEC3"
        },
        {
            "bufferView" : 9,
            "componentType" : 5126,
            "count" : 4185,
            "type" : "VEC3"
        },
        {
            "bufferView" : 10,
            "componentType" : 5126,
            "count" : 4185,
            "type" : "VEC2"
        },
        {
            "bufferView" : 11,
            "componentType" : 5123,
            "count" : 8511,
            "type" : "SCALAR"
        }
    ],
    "bufferViews" : [
        {
            "buffer" : 0,
            "byteLength" : 15012,
            "byteOffset" : 0
        },
        {
            "buffer" : 0,
            "byteLength" : 15012,
            "byteOffset" : 15012
        },
        {
            "buffer" : 0,
            "byteLength" : 10008,
            "byteOffset" : 30024
        },
        {
            "buffer" : 0,
            "byteLength" : 5802,
            "byteOffset" : 40032
        },
        {
            "buffer" : 0,
            "byteLength" : 19224,
            "byteOffset" : 45836
        },
        {
            "buffer" : 0,
            "byteLength" : 19224,
            "byteOffset" : 65060
        },
        {
            "buffer" : 0,
            "byteLength" : 12816,
            "byteOffset" : 84284
        },
        {
            "buffer" : 0,
            "byteLength" : 5628,
            "byteOffset" : 97100
        },
        {
            "buffer" : 0,
            "byteLength" : 50220,
            "byteOffset" : 102728
        },
        {
            "buffer" : 0,
            "byteLength" : 50220,
            "byteOffset" : 152948
        },
        {
            "buffer" : 0,
            "byteLength" : 33480,
            "byteOffset" : 203168
        },
        {
            "buffer" : 0,
            "byteLength" : 17022,
            "byteOffset" : 236648
        }
    ],
    "buffers" : [
        {
            "byteLength" : 253672,
            "uri" : "data:application/octet-stream;base64,"
        }
    ]
}
