{
    "asset" : {
        "generator" : "Khronos glTF Blender I/O v1.6.16",
        "version" : "2.0"
    },
    "scene" : 0,
    "scenes" : [
        {
            "name" : "Scene",
            "nodes" : [
                0,
                1,
                2,
                3,
                4,
                5
            ]
        }
    ],
    "nodes" : [
        {
            "mesh" : 0,
            "name" : "Cube",
            "scale" : [
                1,
                0.30000001192092896,
                1
            ],
            "translation" : [
                0.06380676478147507,
                0,
                0.943428635597229
            ]
        },
        {
            "mesh" : 1,
            "name" : "Cube.001",
            "scale" : [
                1,
                0.30000001192092896,
                1
            ],
            "translation" : [
                0.6366754174232483,
                0,
                0.9465936422348022
            ]
        },
        {
            "mesh" : 2,
            "name" : "Cube.002",
            "scale" : [
                1,
                0.30000001192092896,
                1
            ],
            "translation" : [
                1.2185918092727661,
                0,
                0.9473913908004761
            ]
        },
        {
            "mesh" : 3,
            "name" : "Cube.003",
            "scale" : [
                -1,
                0.15000000596046448,
                1
            ],
            "translation" : [
                -0.06279408186674118,
                0,
                0.943428635597229
            ]
        },
        {
            "mesh" : 4,
            "name" : "Cube.005",
            "scale" : [
                -1,
                0.15000000596046448,
                1
            ],
            "translation" : [
                -0.6462386846542358,
                0,
                0.9465936422348022
            ]
        },
        {
            "mesh" : 5,
            "name" : "Cube.004",
            "scale" : [
                -1,
                0.15000000596046448,
                1
            ],
            "translation" : [
                -1.2281551361083984,
                0,
                0.9473913908004761
            ]
        }
    ],
    "materials" : [
        {
            "doubleSided" : true,
            "emissiveFactor" : [
                0.4677840769290924,
                0.4507858157157898,
                0.7156937122344971
            ],
            "name" : "Material",
            "pbrMetallicRoughness" : {
                "baseColorFactor" : [
                    0.800000011920929,
                    0.800000011920929,
                    0.800000011920929,
                    1
                ],
                "metallicFactor" : 0,
                "roughnessFactor" : 0.4000000059604645
            }
        }
    ],
    "meshes" : [
        {
            "name" : "Cube",
            "primitives" : [
                {
                    "attributes" : {
                        "POSITION" : 0,
                        "NORMAL" : 1,
                        "TEXCOORD_0" : 2
                    },
                    "indices" : 3,
                    "material" : 0
                }
            ]
        },
        {
            "name" : "Cube.001",
            "primitives" : [
                {
                    "attributes" : {
                        "POSITION" : 4,
                        "NORMAL" : 5,
                        "TEXCOORD_0" : 6
                    },
                    "indices" : 3,
                    "material" : 0
                }
            ]
        },
        {
            "name" : "Cube.003",
            "primitives" : [
                {
                    "attributes" : {
                        "POSITION" : 7,
                        "NORMAL" : 8,
                        "TEXCOORD_0" : 9
                    },
                    "indices" : 10,
                    "material" : 0
                }
            ]
        },
        {
            "name" : "Cube.004",
            "primitives" : [
                {
                    "attributes" : {
                        "POSITION" : 11,
                        "NORMAL" : 12,
                        "TEXCOORD_0" : 13
                    },
                    "indices" : 3,
                    "material" : 0
                }
            ]
        },
        {
            "name" : "Cube.006",
            "primitives" : [
                {
                    "attributes" : {
                        "POSITION" : 14,
                        "NORMAL" : 15,
                        "TEXCOORD_0" : 16
                    },
                    "indices" : 3,
                    "material" : 0
                }
            ]
        },
        {
            "name" : "Cube.005",
            "primitives" : [
                {
                    "attributes" : {
                        "POSITION" : 17,
                        "NORMAL" : 18,
                        "TEXCOORD_0" : 19
                    },
                    "indices" : 10,
                    "material" : 0
                }
            ]
        }
    ],
    "accessors" : [
        {
            "bufferView" : 0,
            "componentType" : 5126,
            "count" : 30,
            "max" : [
                -0.6484333276748657,
                1,
                1.174217700958252
            ],
            "min" : [
                -1.3513764142990112,
                -1,
                -0.5953203439712524
            ],
            "type" : "VEC3"
        },
        {
            "bufferView" : 1,
            "componentType" : 5126,
            "count" : 30,
            "type" : "VEC3"
        },
        {
            "bufferView" : 2,
            "componentType" : 5126,
            "count" : 30,
            "type" : "VEC2"
        },
        {
            "bufferView" : 3,
            "componentType" : 5123,
            "count" : 48,
            "type" : "SCALAR"
        },
        {
            "bufferView" : 4,
            "componentType" : 5126,
            "count" : 30,
            "max" : [
                -0.6431335210800171,
                1,
                1.174217700958252
            ],
            "min" : [
                -1.5345373153686523,
                -1,
                -1.1997511386871338
            ],
            "type" : "VEC3"
        },
        {
            "bufferView" : 5,
            "componentType" : 5126,
            "count" : 30,
            "type" : "VEC3"
        },
        {
            "bufferView" : 6,
            "componentType" : 5126,
            "count" : 30,
            "type" : "VEC2"
        },
        {
            "bufferView" : 7,
            "componentType" : 5126,
            "count" : 46,
            "max" : [
                -0.6431335210800171,
                1,
                1.1727455854415894
            ],
            "min" : [
                -1.7332795858383179,
                -1,
                -3.071986198425293
            ],
            "type" : "VEC3"
        },
        {
            "bufferView" : 8,
            "componentType" : 5126,
            "count" : 46,
            "type" : "VEC3"
        },
        {
            "bufferView" : 9,
            "componentType" : 5126,
            "count" : 46,
            "type" : "VEC2"
        },
        {
            "bufferView" : 10,
            "componentType" : 5123,
            "count" : 72,
            "type" : "SCALAR"
        },
        {
            "bufferView" : 11,
            "componentType" : 5126,
            "count" : 30,
            "max" : [
                -0.6484333276748657,
                1,
                1.174217700958252
            ],
            "min" : [
                -1.3513764142990112,
                -1,
                -0.5953203439712524
            ],
            "type" : "VEC3"
        },
        {
            "bufferView" : 12,
            "componentType" : 5126,
            "count" : 30,
            "type" : "VEC3"
        },
        {
            "bufferView" : 13,
            "componentType" : 5126,
            "count" : 30,
            "type" : "VEC2"
        },
        {
            "bufferView" : 14,
            "componentType" : 5126,
            "count" : 30,
            "max" : [
                -0.6431335210800171,
                1,
                1.174217700958252
            ],
            "min" : [
                -1.5345373153686523,
                -1,
                -1.1997511386871338
            ],
            "type" : "VEC3"
        },
        {
            "bufferView" : 15,
            "componentType" : 5126,
            "count" : 30,
            "type" : "VEC3"
        },
        {
            "bufferView" : 16,
            "componentType" : 5126,
            "count" : 30,
            "type" : "VEC2"
        },
        {
            "bufferView" : 17,
            "componentType" : 5126,
            "count" : 46,
            "max" : [
                -0.6431335210800171,
                1,
                1.1727455854415894
            ],
            "min" : [
                -1.7332795858383179,
                -1,
                -3.071986198425293
            ],
            "type" : "VEC3"
        },
        {
            "bufferView" : 18,
            "componentType" : 5126,
            "count" : 46,
            "type" : "VEC3"
        },
        {
            "bufferView" : 19,
            "componentType" : 5126,
            "count" : 46,
            "type" : "VEC2"
        }
    ],
    "bufferViews" : [
        {
            "buffer" : 0,
            "byteLength" : 360,
            "byteOffset" : 0
        },
        {
            "buffer" : 0,
            "byteLength" : 360,
            "byteOffset" : 360
        },
        {
            "buffer" : 0,
            "byteLength" : 240,
            "byteOffset" : 720
        },
        {
            "buffer" : 0,
            "byteLength" : 96,
            "byteOffset" : 960
        },
        {
            "buffer" : 0,
            "byteLength" : 360,
            "byteOffset" : 1056
        },
        {
            "buffer" : 0,
            "byteLength" : 360,
            "byteOffset" : 1416
        },
        {
            "buffer" : 0,
            "byteLength" : 240,
            "byteOffset" : 1776
        },
        {
            "buffer" : 0,
            "byteLength" : 552,
            "byteOffset" : 2016
        },
        {
            "buffer" : 0,
            "byteLength" : 552,
            "byteOffset" : 2568
        },
        {
            "buffer" : 0,
            "byteLength" : 368,
            "byteOffset" : 3120
        },
        {
            "buffer" : 0,
            "byteLength" : 144,
            "byteOffset" : 3488
        },
        {
            "buffer" : 0,
            "byteLength" : 360,
            "byteOffset" : 3632
        },
        {
            "buffer" : 0,
            "byteLength" : 360,
            "byteOffset" : 3992
        },
        {
            "buffer" : 0,
            "byteLength" : 240,
            "byteOffset" : 4352
        },
        {
            "buffer" : 0,
            "byteLength" : 360,
            "byteOffset" : 4592
        },
        {
            "buffer" : 0,
            "byteLength" : 360,
            "byteOffset" : 4952
        },
        {
            "buffer" : 0,
            "byteLength" : 240,
            "byteOffset" : 5312
        },
        {
            "buffer" : 0,
            "byteLength" : 552,
            "byteOffset" : 5552
        },
        {
            "buffer" : 0,
            "byteLength" : 552,
            "byteOffset" : 6104
        },
        {
            "buffer" : 0,
            "byteLength" : 368,
            "byteOffset" : 6656
        }
    ],
    "buffers" : [
        {
            "byteLength" : 7024,
            "uri" : "data:application/octet-stream;base64,"
        }
    ]
}
