{
    "asset" : {
        "generator" : "Khronos glTF Blender I/O v1.6.16",
        "version" : "2.0"
    },
    "scene" : 0,
    "scenes" : [
        {
            "name" : "Scene",
            "nodes" : [
                0,
                1,
                2,
                3
            ]
        }
    ],
    "nodes" : [
        {
            "mesh" : 0,
            "name" : "Cube",
            "scale" : [
                1,
                0.30000001192092896,
                1
            ],
            "translation" : [
                -0.08862051367759705,
                0,
                -0.455762654542923
            ]
        },
        {
            "mesh" : 1,
            "name" : "Cube.001",
            "scale" : [
                1,
                0.30000001192092896,
                1
            ],
            "translation" : [
                0.6823784112930298,
                0,
                -0.455762654542923
            ]
        },
        {
            "mesh" : 2,
            "name" : "Cube.002",
            "scale" : [
                1,
                0.30000001192092896,
                1
            ],
            "translation" : [
                1.4546434879302979,
                0,
                -0.455762654542923
            ]
        },
        {
            "mesh" : 3,
            "name" : "Cube.003",
            "scale" : [
                1,
                0.30000001192092896,
                1
            ],
            "translation" : [
                2.22057843208313,
                0,
                -0.455762654542923
            ]
        }
    ],
    "materials" : [
        {
            "doubleSided" : true,
            "emissiveFactor" : [
                0.5332766771316528,
                0.04666502773761749,
                0.04231142997741699
            ],
            "name" : "Material",
            "pbrMetallicRoughness" : {
                "baseColorFactor" : [
                    0.7991032600402832,
                    0.7991029024124146,
                    0.7991030216217041,
                    1
                ],
                "metallicFactor" : 0,
                "roughnessFactor" : 0.4000000059604645
            }
        }
    ],
    "meshes" : [
        {
            "name" : "Cube",
            "primitives" : [
                {
                    "attributes" : {
                        "POSITION" : 0,
                        "NORMAL" : 1,
                        "TEXCOORD_0" : 2
                    },
                    "indices" : 3,
                    "material" : 0
                }
            ]
        },
        {
            "name" : "Cube.001",
            "primitives" : [
                {
                    "attributes" : {
                        "POSITION" : 4,
                        "NORMAL" : 5,
                        "TEXCOORD_0" : 6
                    },
                    "indices" : 7,
                    "material" : 0
                }
            ]
        },
        {
            "name" : "Cube.002",
            "primitives" : [
                {
                    "attributes" : {
                        "POSITION" : 8,
                        "NORMAL" : 9,
                        "TEXCOORD_0" : 10
                    },
                    "indices" : 11,
                    "material" : 0
                }
            ]
        },
        {
            "name" : "Cube.003",
            "primitives" : [
                {
                    "attributes" : {
                        "POSITION" : 12,
                        "NORMAL" : 13,
                        "TEXCOORD_0" : 14
                    },
                    "indices" : 15,
                    "material" : 0
                }
            ]
        }
    ],
    "accessors" : [
        {
            "bufferView" : 0,
            "componentType" : 5126,
            "count" : 40,
            "max" : [
                0.756405234336853,
                1,
                2.196803092956543
            ],
            "min" : [
                -1.63271164894104,
                0,
                -1
            ],
            "type" : "VEC3"
        },
        {
            "bufferView" : 1,
            "componentType" : 5126,
            "count" : 40,
            "type" : "VEC3"
        },
        {
            "bufferView" : 2,
            "componentType" : 5126,
            "count" : 40,
            "type" : "VEC2"
        },
        {
            "bufferView" : 3,
            "componentType" : 5123,
            "count" : 66,
            "type" : "SCALAR"
        },
        {
            "bufferView" : 4,
            "componentType" : 5126,
            "count" : 35,
            "max" : [
                0.30030882358551025,
                1,
                1.3801733255386353
            ],
            "min" : [
                -1.63271164894104,
                0,
                -1
            ],
            "type" : "VEC3"
        },
        {
            "bufferView" : 5,
            "componentType" : 5126,
            "count" : 35,
            "type" : "VEC3"
        },
        {
            "bufferView" : 6,
            "componentType" : 5126,
            "count" : 35,
            "type" : "VEC2"
        },
        {
            "bufferView" : 7,
            "componentType" : 5123,
            "count" : 57,
            "type" : "SCALAR"
        },
        {
            "bufferView" : 8,
            "componentType" : 5126,
            "count" : 25,
            "max" : [
                0.30030882358551025,
                1,
                0.6735342741012573
            ],
            "min" : [
                -1.63271164894104,
                0,
                -1
            ],
            "type" : "VEC3"
        },
        {
            "bufferView" : 9,
            "componentType" : 5126,
            "count" : 25,
            "type" : "VEC3"
        },
        {
            "bufferView" : 10,
            "componentType" : 5126,
            "count" : 25,
            "type" : "VEC2"
        },
        {
            "bufferView" : 11,
            "componentType" : 5123,
            "count" : 39,
            "type" : "SCALAR"
        },
        {
            "bufferView" : 12,
            "componentType" : 5126,
            "count" : 15,
            "max" : [
                -1,
                1,
                -0.2707796096801758
            ],
            "min" : [
                -1.63271164894104,
                0,
                -1
            ],
            "type" : "VEC3"
        },
        {
            "bufferView" : 13,
            "componentType" : 5126,
            "count" : 15,
            "type" : "VEC3"
        },
        {
            "bufferView" : 14,
            "componentType" : 5126,
            "count" : 15,
            "type" : "VEC2"
        },
        {
            "bufferView" : 15,
            "componentType" : 5123,
            "count" : 21,
            "type" : "SCALAR"
        }
    ],
    "bufferViews" : [
        {
            "buffer" : 0,
            "byteLength" : 480,
            "byteOffset" : 0
        },
        {
            "buffer" : 0,
            "byteLength" : 480,
            "byteOffset" : 480
        },
        {
            "buffer" : 0,
            "byteLength" : 320,
            "byteOffset" : 960
        },
        {
            "buffer" : 0,
            "byteLength" : 132,
            "byteOffset" : 1280
        },
        {
            "buffer" : 0,
            "byteLength" : 420,
            "byteOffset" : 1412
        },
        {
            "buffer" : 0,
            "byteLength" : 420,
            "byteOffset" : 1832
        },
        {
            "buffer" : 0,
            "byteLength" : 280,
            "byteOffset" : 2252
        },
        {
            "buffer" : 0,
            "byteLength" : 114,
            "byteOffset" : 2532
        },
        {
            "buffer" : 0,
            "byteLength" : 300,
            "byteOffset" : 2648
        },
        {
            "buffer" : 0,
            "byteLength" : 300,
            "byteOffset" : 2948
        },
        {
            "buffer" : 0,
            "byteLength" : 200,
            "byteOffset" : 3248
        },
        {
            "buffer" : 0,
            "byteLength" : 78,
            "byteOffset" : 3448
        },
        {
            "buffer" : 0,
            "byteLength" : 180,
            "byteOffset" : 3528
        },
        {
            "buffer" : 0,
            "byteLength" : 180,
            "byteOffset" : 3708
        },
        {
            "buffer" : 0,
            "byteLength" : 120,
            "byteOffset" : 3888
        },
        {
            "buffer" : 0,
            "byteLength" : 42,
            "byteOffset" : 4008
        }
    ],
    "buffers" : [
        {
            "byteLength" : 4052,
            "uri" : "data:application/octet-stream;base64,"
        }
    ]
}
